<svg xmlns="http://www.w3.org/2000/svg" width="45" height="45" viewBox="0 0 45 45">
  <path id="Exclusion_1" data-name="Exclusion 1" d="M32,42a12.962,12.962,0,0,1-11.564-7.054,19.1,19.1,0,0,0,17.51-17.51A12.857,12.857,0,0,0,32,16,13.015,13.015,0,0,0,19,29a12.858,12.858,0,0,0,1.437,5.947c-.482.036-.965.054-1.437.054A19,19,0,0,1,0,16,19,19,0,0,1,19-3a19.833,19.833,0,0,1,3.765.373A18.511,18.511,0,0,1,33.586,3.787,19.061,19.061,0,0,1,38,16c0,.478-.018.961-.054,1.437A13,13,0,0,1,32,42Z" transform="translate(0 3)" fill="#421212"/>
</svg>
